<svg id="visual" viewBox="0 0 900 600" width="900" height="600" xmlns="http://www.w3.org/2000/svg" xmlns:xlink="http://www.w3.org/1999/xlink" version="1.1"><rect x="0" y="0" width="900" height="600" fill="#8820fe"></rect><g transform="translate(446.20627127156206 291.44688206581276)"><path d="M103.9 -181.2C126.9 -166.8 132.3 -123.1 157.9 -88.1C183.5 -53 229.2 -26.5 236.7 4.3C244.2 35.2 213.5 70.3 184.8 100.1C156.2 129.8 129.6 154.1 99.1 174.5C68.7 194.9 34.3 211.5 -5.4 220.8C-45.2 230.2 -90.3 232.5 -133.6 219.5C-176.9 206.5 -218.4 178.2 -228 139.1C-237.5 100 -215.3 50 -193.6 12.5C-172 -25 -150.9 -50 -142.9 -91.7C-134.8 -133.4 -139.6 -191.9 -118 -207C-96.3 -222.2 -48.2 -194.1 -3.8 -187.5C40.5 -180.8 81 -195.6 103.9 -181.2" fill="#fff"></path></g></svg>